<?xml version="1.0" standalone="no"?>
<!DOCTYPE svg PUBLIC "-//W3C//DTD SVG 20010904//EN"
 "http://www.w3.org/TR/2001/REC-SVG-20010904/DTD/svg10.dtd">
<svg version="1.0" xmlns="http://www.w3.org/2000/svg"
 width="1080.000000pt" height="1080.000000pt" viewBox="0 0 1080.000000 1080.000000"
 preserveAspectRatio="xMidYMid meet">
<metadata>
Created by potrace 1.14, written by Peter Selinger 2001-2017
</metadata>
<g transform="translate(0.000000,1080.000000) scale(0.100000,-0.100000)"
fill="#000000" stroke="none">
<path d="M773 8680 c-35 -14 -56 -55 -49 -92 4 -18 730 -1477 1614 -3243 1753
-3502 1621 -3250 1698 -3225 34 12 44 30 471 883 576 1151 603 1206 603 1233
0 36 -746 1519 -775 1543 -30 23 -80 20 -106 -6 -10 -10 -63 -110 -119 -222
l-102 -205 -824 1650 c-498 995 -835 1658 -850 1671 l-25 23 -757 -1 c-416 0
-767 -5 -779 -9z"/>
<path d="M3536 8665 c-14 -13 -27 -30 -27 -37 -1 -7 -2 -20 -3 -28 -1 -8 123
-265 275 -570 352 -706 2656 -5315 2669 -5338 5 -9 67 -133 137 -275 70 -142
136 -267 146 -278 25 -26 61 -33 94 -17 24 11 246 449 1640 3233 1758 3511
1639 3262 1576 3312 l-28 23 -2118 -3 -2119 -2 -25 -29 c-19 -23 -24 -36 -19
-60 10 -53 758 -1541 785 -1561 22 -17 59 -18 562 -18 297 0 539 -3 539 -8 0
-4 -186 -380 -414 -835 l-414 -828 -828 1658 c-675 1349 -834 1660 -855 1672
-22 11 -159 13 -787 13 l-760 0 -26 -24z"/>
</g>
</svg>
